<?xml version="1.0" standalone="no"?>
<!DOCTYPE svg PUBLIC "-//W3C//DTD SVG 20010904//EN"
 "http://www.w3.org/TR/2001/REC-SVG-20010904/DTD/svg10.dtd">
<svg version="1.0" xmlns="http://www.w3.org/2000/svg"
 width="35.000000pt" height="35.000000pt" viewBox="0 0 35.000000 35.000000"
 preserveAspectRatio="xMidYMid meet">
<metadata>
Created by potrace 1.15, written by Peter Selinger 2001-2017
</metadata>
<g transform="translate(0.000000,35.000000) scale(0.100000,-0.100000)"
fill="#000000" stroke="none">
<path d="M130 283 c-31 -12 -60 -47 -66 -80 -16 -83 64 -150 145 -122 28 10
35 9 57 -12 19 -17 27 -20 36 -11 9 9 7 17 -9 34 -17 19 -20 32 -16 74 5 46 2
54 -23 83 -29 32 -88 49 -124 34z m90 -33 c10 -5 23 -23 29 -40 28 -82 -73
-147 -134 -85 -69 68 18 172 105 125z"/>
</g>
</svg>
