<?xml version="1.0" standalone="no"?>
<!DOCTYPE svg PUBLIC "-//W3C//DTD SVG 20010904//EN"
 "http://www.w3.org/TR/2001/REC-SVG-20010904/DTD/svg10.dtd">
<svg version="1.0" xmlns="http://www.w3.org/2000/svg"
 width="50.000000pt" height="50.000000pt" viewBox="0 0 50.000000 50.000000"
 preserveAspectRatio="xMidYMid meet">
<metadata>
Created by potrace 1.15, written by Peter Selinger 2001-2017
</metadata>
<g transform="translate(0.000000,50.000000) scale(0.100000,-0.100000)"
fill="#000000" stroke="none">
<path d="M220 413 c-17 -22 -32 -29 -73 -33 l-52 -5 0 -47 c0 -35 -5 -51 -20
-62 -11 -9 -23 -16 -27 -16 -20 -1 -5 -48 22 -72 25 -22 29 -31 24 -57 -9 -44
10 -64 53 -56 29 5 38 2 61 -24 33 -38 68 -41 84 -6 12 27 14 28 73 29 l40 1
3 52 c2 42 7 55 25 64 45 24 47 41 8 77 -23 21 -30 37 -33 72 l-3 45 -45 3
c-35 3 -51 10 -72 33 -33 36 -41 36 -68 2z m87 -135 c32 -30 31 -81 -2 -113
-72 -73 -178 28 -114 109 27 34 82 36 116 4z"/>
</g>
</svg>
