<?xml version="1.0" standalone="no"?>
<!DOCTYPE svg PUBLIC "-//W3C//DTD SVG 20010904//EN"
 "http://www.w3.org/TR/2001/REC-SVG-20010904/DTD/svg10.dtd">
<svg version="1.0" xmlns="http://www.w3.org/2000/svg"
 width="50.000000pt" height="50.000000pt" viewBox="0 0 50.000000 50.000000"
 preserveAspectRatio="xMidYMid meet">
<metadata>
Created by potrace 1.15, written by Peter Selinger 2001-2017
</metadata>
<g transform="translate(0.000000,50.000000) scale(0.100000,-0.100000)"
fill="#000000" stroke="none">
<path d="M132 338 c-7 -7 -12 -18 -12 -25 0 -9 -17 -13 -60 -13 l-60 0 0 -102
1 -103 40 78 c27 54 47 81 65 87 14 6 84 10 155 10 100 0 130 3 127 13 -3 7
-28 13 -67 15 -55 3 -63 6 -71 27 -8 22 -16 25 -58 25 -26 0 -53 -5 -60 -12z"/>
<path d="M107 228 c-15 -12 -107 -198 -107 -218 0 -11 348 -14 375 -4 17 7
115 193 115 219 0 13 -26 15 -183 15 -131 0 -188 -4 -200 -12z"/>
</g>
</svg>
