<?xml version="1.0" standalone="no"?>
<!DOCTYPE svg PUBLIC "-//W3C//DTD SVG 20010904//EN"
 "http://www.w3.org/TR/2001/REC-SVG-20010904/DTD/svg10.dtd">
<svg version="1.0" xmlns="http://www.w3.org/2000/svg"
 width="50.000000pt" height="50.000000pt" viewBox="0 0 50.000000 50.000000"
 preserveAspectRatio="xMidYMid meet">
<metadata>
Created by potrace 1.15, written by Peter Selinger 2001-2017
</metadata>
<g transform="translate(0.000000,50.000000) scale(0.100000,-0.100000)"
fill="#000000" stroke="none">
<path d="M142 332 c-56 -31 -99 -59 -95 -63 5 -4 52 -30 105 -59 l98 -52 106
57 106 57 -43 25 c-24 14 -73 40 -109 58 l-65 33 -103 -56z"/>
<path d="M52 201 c-14 -9 9 -25 135 -91 l62 -32 108 58 c94 50 105 58 86 67
-17 8 -39 0 -108 -37 l-87 -46 -83 45 c-87 48 -92 49 -113 36z"/>
<path d="M52 121 c-14 -9 9 -25 135 -91 l62 -32 108 58 c94 50 105 58 86 67
-17 8 -39 0 -108 -37 l-87 -46 -83 45 c-87 48 -92 49 -113 36z"/>
</g>
</svg>
